<?xml version="1.0" encoding="UTF-8"?>
<svg xmlns="http://www.w3.org/2000/svg" width="512" height="512" viewBox="410 340 430 420" role="img" aria-labelledby="title desc">
  <title id="title">Centeno Advisory Isotype</title>
  <desc id="desc">Vector isotype monogram for Centeno Advisory.</desc>
  <path d="M 817.00 725.50 L 738.50 725.00 L 739.00 723.50 L 748.00 722.50 L 753.00 720.50 L 757.50 716.00 L 757.50 707.00 L 666.00 498.50 L 663.50 502.00 L 663.50 504.00 L 658.50 513.00 L 658.50 515.00 L 643.50 547.00 L 643.50 549.00 L 639.50 556.00 L 636.50 565.00 L 628.50 581.00 L 628.50 583.00 L 625.50 588.00 L 622.50 597.00 L 614.50 613.00 L 612.50 620.00 L 608.50 627.00 L 608.50 629.00 L 605.50 634.00 L 602.50 643.00 L 598.50 650.00 L 598.50 652.00 L 595.50 657.00 L 595.50 659.00 L 574.50 706.00 L 574.50 715.00 L 575.50 717.00 L 582.00 721.50 L 589.00 723.50 L 593.00 723.50 L 593.50 725.00 L 538.00 725.50 L 538.00 723.50 L 550.00 721.50 L 558.00 717.50 L 562.00 714.50 L 568.50 707.00 L 577.50 688.00 L 577.50 686.00 L 583.50 675.00 L 588.50 661.00 L 592.50 654.00 L 574.00 653.50 L 573.00 652.50 L 566.00 652.50 L 565.00 651.50 L 554.00 650.50 L 527.00 642.50 L 508.00 633.50 L 485.00 617.50 L 467.50 600.00 L 462.50 594.00 L 449.50 573.00 L 449.50 571.00 L 446.50 566.00 L 441.50 552.00 L 441.50 549.00 L 438.50 541.00 L 438.50 536.00 L 437.50 535.00 L 436.50 517.00 L 435.50 516.00 L 436.50 491.00 L 437.50 490.00 L 437.50 485.00 L 438.50 484.00 L 440.50 472.00 L 446.50 455.00 L 454.50 439.00 L 471.50 416.00 L 482.00 405.50 L 492.00 397.50 L 517.00 382.50 L 519.00 382.50 L 524.00 379.50 L 529.00 378.50 L 541.00 373.50 L 559.00 370.50 L 560.00 369.50 L 566.00 369.50 L 567.00 368.50 L 576.00 368.50 L 577.00 367.50 L 608.00 367.50 L 609.00 368.50 L 619.00 368.50 L 620.00 369.50 L 626.00 369.50 L 627.00 370.50 L 633.00 370.50 L 647.00 374.50 L 651.00 374.50 L 672.00 381.50 L 693.00 391.50 L 695.50 394.00 L 695.50 409.00 L 696.50 410.00 L 696.50 424.00 L 697.50 425.00 L 697.00 439.50 L 695.50 439.00 L 692.50 429.00 L 686.50 418.00 L 679.50 409.00 L 666.00 396.50 L 656.00 389.50 L 642.00 382.50 L 616.00 374.50 L 599.00 373.50 L 598.00 372.50 L 581.00 372.50 L 580.00 373.50 L 570.00 373.50 L 569.00 374.50 L 559.00 375.50 L 540.00 381.50 L 526.00 388.50 L 513.00 397.50 L 501.50 408.00 L 487.50 426.00 L 475.50 449.00 L 468.50 470.00 L 466.50 485.00 L 465.50 486.00 L 465.50 495.00 L 464.50 496.00 L 464.50 521.00 L 465.50 522.00 L 465.50 531.00 L 466.50 532.00 L 467.50 543.00 L 474.50 566.00 L 482.50 583.00 L 490.50 596.00 L 494.50 600.00 L 497.50 605.00 L 518.00 624.50 L 532.00 633.50 L 544.00 639.50 L 555.00 643.50 L 562.00 644.50 L 567.00 646.50 L 572.00 646.50 L 573.00 647.50 L 594.00 648.50 L 600.50 636.00 L 602.50 629.00 L 606.50 622.00 L 606.50 620.00 L 613.50 606.00 L 616.50 597.00 L 627.50 574.00 L 627.50 572.00 L 631.50 565.00 L 631.50 563.00 L 634.50 558.00 L 637.50 549.00 L 642.50 540.00 L 642.50 538.00 L 649.50 524.00 L 652.50 515.00 L 657.50 506.00 L 659.50 499.00 L 663.50 492.00 L 663.50 490.00 L 671.50 474.00 L 671.50 472.00 L 675.50 464.00 L 677.00 463.50 L 780.50 698.00 L 786.50 707.00 L 796.00 716.50 L 806.00 721.50 L 817.00 723.50 L 817.00 725.50 Z
    M 615.00 653.50 L 605.00 653.50 L 604.50 652.00 L 608.00 647.50 L 623.00 646.50 L 624.00 645.50 L 639.00 642.50 L 658.00 634.50 L 678.00 621.50 L 685.00 615.50 L 695.00 604.50 L 696.50 605.00 L 704.50 624.00 L 704.50 625.00 L 701.00 627.50 L 679.00 638.50 L 662.00 644.50 L 659.00 644.50 L 655.00 646.50 L 647.00 647.50 L 642.00 649.50 L 638.00 649.50 L 637.00 650.50 L 625.00 651.50 L 624.00 652.50 L 616.00 652.50 L 615.00 653.50 Z" fill="#000000" fill-rule="evenodd"/>
</svg>
